<svg xmlns="http://www.w3.org/2000/svg" width="48" height="48" viewBox="20 12 32 32"><style>svg{--ink:#ece3d0;--stone:#8e8597;--gold:#e3b341;--goldDark:#8a6510;--goldLight:#f7dc8a;--blood:#c8283f;--bloodLight:#f06a7c;--bloodDark:#7d1222;--lit:#f1e7c8;--track:rgba(236,227,208,.16);--shadow:rgba(10,8,12,.7)}
text{font-family:Palatino,'Palatino Linotype','Book Antiqua',Georgia,serif;font-variant-numeric:tabular-nums lining-nums}
.v{font-size:23px;font-weight:600;letter-spacing:.01em}
.c{font-size:19.7px;fill:var(--stone)}
rect{shape-rendering:crispEdges}
.drip{animation:drip .5s ease-out}
@keyframes drip{from{opacity:.15}to{opacity:1}}
@keyframes flapA{0%,49.9%{opacity:1}50%,100%{opacity:0}}
@keyframes flapB{0%,49.9%{opacity:0}50%,100%{opacity:1}}
.up{animation:flapA .36s steps(1) infinite}.down{opacity:0;animation:flapB .36s steps(1) infinite}
@media (prefers-reduced-motion:reduce){.drip{animation:none}.up{animation:none}.down{animation:none;opacity:0}}
</style><rect x="20" y="12" width="32" height="32" rx="5" fill="#1d1528"/><g transform="translate(22 0)"><rect x="3.2" y="17" width="3.2" height="3.2" fill="var(--goldDark)"/><rect x="6.4" y="17" width="3.2" height="3.2" fill="var(--goldDark)"/><rect x="9.600000000000001" y="17" width="3.2" height="3.2" fill="var(--goldDark)"/><rect x="12.8" y="17" width="3.2" height="3.2" fill="var(--goldDark)"/><rect x="16" y="17" width="3.2" height="3.2" fill="var(--goldDark)"/><rect x="19.200000000000003" y="17" width="3.2" height="3.2" fill="var(--goldDark)"/><rect x="22.400000000000002" y="17" width="3.2" height="3.2" fill="var(--goldDark)"/><rect x="0" y="20.2" width="3.2" height="3.2" fill="var(--goldDark)"/><rect x="3.2" y="20.2" width="3.2" height="3.2" fill="var(--lit)"/><rect x="6.4" y="20.2" width="3.2" height="3.2" fill="var(--lit)"/><rect x="9.600000000000001" y="20.2" width="3.2" height="3.2" fill="var(--lit)"/><rect x="12.8" y="20.2" width="3.2" height="3.2" fill="var(--lit)"/><rect x="16" y="20.2" width="3.2" height="3.2" fill="var(--lit)"/><rect x="19.200000000000003" y="20.2" width="3.2" height="3.2" fill="var(--lit)"/><rect x="22.400000000000002" y="20.2" width="3.2" height="3.2" fill="var(--lit)"/><rect x="25.6" y="20.2" width="3.2" height="3.2" fill="var(--goldDark)"/><rect x="3.2" y="23.4" width="3.2" height="3.2" fill="var(--lit)"/><rect x="6.4" y="23.4" width="3.2" height="3.2" fill="var(--stone)"/><rect x="9.600000000000001" y="23.4" width="3.2" height="3.2" fill="var(--stone)"/><rect x="12.8" y="23.4" width="3.2" height="3.2" fill="var(--stone)"/><rect x="16" y="23.4" width="3.2" height="3.2" fill="var(--stone)"/><rect x="19.200000000000003" y="23.4" width="3.2" height="3.2" fill="var(--stone)"/><rect x="22.400000000000002" y="23.4" width="3.2" height="3.2" fill="var(--lit)"/><rect x="3.2" y="26.6" width="3.2" height="3.2" fill="var(--lit)"/><rect x="6.4" y="26.6" width="3.2" height="3.2" fill="var(--lit)"/><rect x="9.600000000000001" y="26.6" width="3.2" height="3.2" fill="var(--lit)"/><rect x="12.8" y="26.6" width="3.2" height="3.2" fill="var(--lit)"/><rect x="16" y="26.6" width="3.2" height="3.2" fill="var(--lit)"/><rect x="19.200000000000003" y="26.6" width="3.2" height="3.2" fill="var(--lit)"/><rect x="22.400000000000002" y="26.6" width="3.2" height="3.2" fill="var(--lit)"/><rect x="3.2" y="29.8" width="3.2" height="3.2" fill="var(--lit)"/><rect x="6.4" y="29.8" width="3.2" height="3.2" fill="var(--stone)"/><rect x="9.600000000000001" y="29.8" width="3.2" height="3.2" fill="var(--stone)"/><rect x="12.8" y="29.8" width="3.2" height="3.2" fill="var(--stone)"/><rect x="16" y="29.8" width="3.2" height="3.2" fill="var(--stone)"/><rect x="19.200000000000003" y="29.8" width="3.2" height="3.2" fill="var(--lit)"/><rect x="3.2" y="33" width="3.2" height="3.2" fill="var(--lit)"/><rect x="6.4" y="33" width="3.2" height="3.2" fill="var(--lit)"/><rect x="9.600000000000001" y="33" width="3.2" height="3.2" fill="var(--lit)"/><rect x="12.8" y="33" width="3.2" height="3.2" fill="var(--lit)"/><rect x="16" y="33" width="3.2" height="3.2" fill="var(--lit)"/><rect x="19.200000000000003" y="33" width="3.2" height="3.2" fill="var(--lit)"/><rect x="22.400000000000002" y="33" width="3.2" height="3.2" fill="var(--lit)"/><rect x="0" y="36.2" width="3.2" height="3.2" fill="var(--goldDark)"/><rect x="3.2" y="36.2" width="3.2" height="3.2" fill="var(--lit)"/><rect x="6.4" y="36.2" width="3.2" height="3.2" fill="var(--lit)"/><rect x="9.600000000000001" y="36.2" width="3.2" height="3.2" fill="var(--lit)"/><rect x="12.8" y="36.2" width="3.2" height="3.2" fill="var(--lit)"/><rect x="16" y="36.2" width="3.2" height="3.2" fill="var(--lit)"/><rect x="19.200000000000003" y="36.2" width="3.2" height="3.2" fill="var(--lit)"/><rect x="22.400000000000002" y="36.2" width="3.2" height="3.2" fill="var(--lit)"/><rect x="25.6" y="36.2" width="3.2" height="3.2" fill="var(--goldDark)"/><rect x="3.2" y="39.400000000000006" width="3.2" height="3.2" fill="var(--goldDark)"/><rect x="6.4" y="39.400000000000006" width="3.2" height="3.2" fill="var(--goldDark)"/><rect x="9.600000000000001" y="39.400000000000006" width="3.2" height="3.2" fill="var(--goldDark)"/><rect x="12.8" y="39.400000000000006" width="3.2" height="3.2" fill="var(--goldDark)"/><rect x="16" y="39.400000000000006" width="3.2" height="3.2" fill="var(--goldDark)"/><rect x="19.200000000000003" y="39.400000000000006" width="3.2" height="3.2" fill="var(--goldDark)"/><rect x="22.400000000000002" y="39.400000000000006" width="3.2" height="3.2" fill="var(--goldDark)"/><text x="38" y="27" class="v"><tspan fill="var(--ink)">+2</tspan><tspan fill="var(--blood)" dx="8">−1</tspan></text><text x="38" y="50" class="c">lines changed</text></g></svg>